<svg id="Calque_1" data-name="Calque 1" xmlns="http://www.w3.org/2000/svg" xmlns:xlink="http://www.w3.org/1999/xlink" viewBox="0 0 110.75 326.89"><defs><style>.cls-1{fill:#fff;}</style></defs><title>coupon</title><path class="cls-1" d="M-14.75,69H82v96.75H-14.75Zm71.83,66.38c12.79-23.41,10.21-42.87-7.21-56a38.74,38.74,0,0,0-54.4,53.94,37.77,37.77,0,0,0,22.62,15c12.14,2.73,23.22-.05,33.87-8.1a25.71,25.71,0,0,0,2.48,3.47c6.05,6.14,12.18,12.2,18.26,18.31,1.83,1.83,3.94,2.51,5.93.63,2.18-2,1.5-4.25-.44-6.19-.8-.79-1.58-1.6-2.38-2.39Z" transform="translate(14.75 -69)"/><path d="M57.08,135.38,75.81,154c.8.79,1.58,1.6,2.38,2.39,1.94,1.94,2.62,4.16.44,6.19-2,1.88-4.1,1.2-5.93-.63-6.08-6.11-12.21-12.17-18.26-18.31A25.71,25.71,0,0,1,52,140.2c-10.65,8.05-21.73,10.83-33.87,8.1a37.77,37.77,0,0,1-22.62-15,38.74,38.74,0,0,1,54.4-53.94C67.29,92.51,69.87,112,57.08,135.38Zm-29.38,6c17.42-.95,30.94-15.3,30-31.84-1-17.6-15.34-30.95-32.24-30C8.35,80.48-5.09,95.1-4.21,111.82-3.31,128.8,11.28,142.32,27.7,141.42Z" transform="translate(14.75 -69)"/><path class="cls-1" d="M27.7,141.42c-16.42.9-31-12.62-31.91-29.6C-5.09,95.1,8.35,80.48,25.46,79.55c16.9-.92,31.24,12.43,32.24,30C58.64,126.12,45.12,140.47,27.7,141.42Z" transform="translate(14.75 -69)"/><image width="128" height="128" transform="translate(14.75 230.89) scale(0.75)" xlink:href="coupon.png"/></svg>