<svg id="Calque_1" data-name="Calque 1" xmlns="http://www.w3.org/2000/svg" viewBox="0 0 96.75 96.75"><defs><style>.cls-1{fill:#fff;}</style></defs><title>search</title><path class="cls-1" d="M.25,300H97v96.75H.25Zm71.83,66.38c12.79-23.41,10.21-42.87-7.21-56a38.74,38.74,0,0,0-54.4,53.94A37.77,37.77,0,0,0,33.09,379.3c12.14,2.73,23.22-.05,33.87-8.1a25.71,25.71,0,0,0,2.48,3.47c6,6.14,12.18,12.2,18.26,18.31,1.83,1.83,3.94,2.51,5.93.63,2.18-2,1.5-4.25-.44-6.19-.8-.79-1.58-1.6-2.38-2.39Z" transform="translate(-0.25 -300)"/><path d="M72.08,366.38,90.81,385c.8.79,1.58,1.6,2.38,2.39,1.94,1.94,2.62,4.16.44,6.19-2,1.88-4.1,1.2-5.93-.63-6.08-6.11-12.21-12.17-18.26-18.31A25.71,25.71,0,0,1,67,371.2c-10.65,8.05-21.73,10.83-33.87,8.1a37.77,37.77,0,0,1-22.62-14.95,38.74,38.74,0,0,1,54.4-53.94C82.29,323.51,84.87,343,72.08,366.38Zm-29.38,6c17.42-.95,30.94-15.3,30-31.84-1-17.6-15.34-30.95-32.24-30-17.11.93-30.55,15.55-29.67,32.27C11.69,359.8,26.28,373.32,42.7,372.42Z" transform="translate(-0.25 -300)"/><path class="cls-1" d="M42.7,372.42c-16.42.9-31-12.62-31.91-29.6-.88-16.72,12.56-31.34,29.67-32.27,16.9-.92,31.24,12.43,32.24,30C73.64,357.12,60.12,371.47,42.7,372.42Z" transform="translate(-0.25 -300)"/></svg>